<?xml version="1.0" standalone="no"?>
<!DOCTYPE svg PUBLIC "-//W3C//DTD SVG 20010904//EN"
 "http://www.w3.org/TR/2001/REC-SVG-20010904/DTD/svg10.dtd">
<svg version="1.0" xmlns="http://www.w3.org/2000/svg"
 width="1200.000000pt" height="485.000000pt" viewBox="0 0 1200.000000 485.000000"
 preserveAspectRatio="xMidYMid meet">

<g transform="translate(0.000000,485.000000) scale(0.100000,-0.100000)"
fill="#000000" stroke="none">
<path d="M0 2425 l0 -2425 5995 0 5995 0 0 2425 0 2425 -5995 0 -5995 0 0
-2425z m10720 2015 c338 -23 671 -87 796 -153 l22 -12 -122 -382 c-67 -211
-125 -385 -128 -388 -3 -3 -51 13 -107 35 -124 49 -288 93 -436 115 -130 21
-473 23 -605 6 -185 -25 -322 -80 -385 -154 -72 -84 -90 -221 -41 -320 54
-112 168 -183 522 -327 264 -108 385 -166 503 -244 314 -205 461 -477 461
-851 0 -444 -186 -802 -538 -1032 -457 -299 -1235 -398 -2027 -258 -239 42
-555 125 -555 146 0 8 220 736 234 776 3 7 31 -2 78 -27 303 -158 879 -229
1253 -154 323 65 477 215 463 454 -6 95 -38 160 -118 233 -83 76 -183 129
-464 242 -411 166 -579 263 -716 412 -149 163 -210 335 -210 596 0 548 273
936 805 1147 152 61 421 120 630 139 129 12 515 12 685 1z m-8223 -122 c10
-35 190 -642 398 -1350 209 -709 383 -1288 386 -1288 3 0 119 564 259 1253
139 688 262 1296 273 1350 l20 97 495 0 c466 0 494 -1 490 -17 -2 -10 -188
-888 -414 -1950 l-409 -1933 -652 0 -651 0 -11 33 c-6 17 -189 622 -407 1342
-217 721 -398 1312 -400 1314 -2 2 -6 2 -7 0 -2 -2 -124 -608 -272 -1346
l-268 -1343 -495 0 -494 0 6 33 c17 87 818 3834 822 3850 5 16 45 17 659 17
l653 0 19 -62z m3753 54 c0 -5 -67 -336 -150 -736 -82 -400 -150 -731 -150
-736 0 -6 227 -10 614 -10 l614 0 9 43 c5 23 74 358 154 744 l144 703 526 0
527 0 -14 -62 c-33 -159 -777 -3739 -786 -3785 l-11 -53 -529 0 -530 0 5 23
c16 61 337 1621 337 1633 0 12 -98 14 -610 14 -335 0 -610 -1 -610 -2 -1 -2
-79 -376 -174 -833 l-172 -830 -526 -3 -525 -2 18 87 c10 49 191 924 403 1946
212 1022 386 1860 386 1862 0 3 236 5 525 5 289 0 525 -4 525 -8z"/>
</g>
</svg>
